<?xml version="1.0" encoding="utf-8"?>
<!-- Generator: Adobe Illustrator 22.0.1, SVG Export Plug-In . SVG Version: 6.00 Build 0)  -->
<svg version="1.1" id="Ebene_1" xmlns="http://www.w3.org/2000/svg" xmlns:xlink="http://www.w3.org/1999/xlink" x="0px" y="0px" viewBox="0 0 125.1 53"
	 style="enable-background:new 0 0 125.1 53;" xml:space="preserve">
<style type="text/css">
	.st0{fill:#FFFFFF;}
</style>
<path class="st0" d="M23.5,40.5"/>
<path class="st0" d="M111.4,53"/>
<polygon class="st0" points="116.3,40.6 123.8,40.6 122.4,46.6 114.9,46.6 "/>
<path class="st0" d="M111.4,53"/>
<path class="st0" d="M10.3,10.3l2-9h8.3l-2,9H10.3z"/>
<g>
	<polygon class="st0" points="18.6,10.3 121,10.3 121.4,8.7 18.9,8.7 	"/>
</g>
<g>
	<polygon class="st0" points="1,51.7 111.6,51.7 112,50.1 1.3,50.1 	"/>
</g>
<path class="st0" d="M2.2,46.6L9.6,14h8.2l-7.3,32.6H2.2z"/>
<path class="st0" d="M59.2,40.5"/>
<polygon class="st0" points="94.3,14.1 120.2,14.1 118.8,20.2 93,20.2 "/>
<polygon class="st0" points="91.6,27 114.2,27 112.8,33.1 90.2,33.1 "/>
<path class="st0" d="M53.9,19.6H26.1c0,0-0.6-0.1-1.2,0.5c-0.5,0.4-0.4,1.1-0.4,1.1v3.9c0,0-0.1,0.8,0.4,1.3
	c0.4,0.4,1.2,0.3,1.2,0.3h18.7c3.1,0,5.3,0.5,6.4,1.6c1.2,1.1,1.7,3.1,1.7,6.1v4.5c0,3-0.6,5.1-1.7,6.1c-1.1,1.1-3.2,1.6-6.3,1.6
	H24.7c-0.6,0-8.6,0-8.6,0v-6.1h28c0,0,1.3,0.2,1.8-0.4s0.4-1.6,0.4-1.6v-2.6c0,0,0.2-1.2-0.7-2.1c-0.7-0.8-2.1-0.7-2.1-0.7H26.1
	c-3.1,0-5.3-0.5-6.4-1.6c-1.1-1.1-1.7-3.1-1.7-6.1v-3.6c0-3,0.6-5.1,1.7-6.1c1.1-1.1,3.3-1.6,6.4-1.6h54.3c3,0,5.1,0.5,6.3,1.5
	s1.7,3.4,1.7,6.1h-6.5v-0.9c0,0,0-0.5-0.3-0.8c-0.4-0.3-1-0.3-1-0.3H61.9c0,0-0.6-0.1-1.2,0.5c-0.5,0.4-0.4,1.1-0.4,1.1v3.9
	c0,0-0.1,0.8,0.4,1.3c0.4,0.4,1.2,0.3,1.2,0.3h18.7c3.1,0,5.3,0.5,6.4,1.6c1.2,1.1,1.7,3.1,1.7,6.1V39c0,0.7-0.1,1.1-0.1,1.7
	l25.5-0.1l-1.5,6.1H83.2h-2.5H60.5h-6.7v-6.1h26.1c0,0,1.3,0.2,1.8-0.4s0.4-1.6,0.4-1.6V36c0,0,0.2-1.2-0.7-2.1
	c-0.7-0.8-2.1-0.7-2.1-0.7H61.7c-3.1,0-5.3-0.5-6.4-1.6c-1.1-1.1-1.7-3.1-1.7-6.1v-3.6C53.8,21,53.8,20.3,53.9,19.6"/>
<g>
	<polygon class="st0" points="20.2,3 122.7,3 123.1,1.3 20.6,1.3 	"/>
</g>
</svg>
